<svg width="251" height="128" viewBox="0 0 251 128" fill="none" xmlns="http://www.w3.org/2000/svg">
<path d="M109 60C109 64.7739 107.104 69.3523 103.728 72.7279C100.352 76.1036 95.7739 78 91 78C86.2261 78 81.6477 76.1036 78.2721 72.7279C74.8964 69.3523 73 64.7739 73 60C73 55.2261 74.8964 50.6477 78.2721 47.2721C81.6477 43.8964 86.2261 42 91 42C95.7739 42 100.352 43.8964 103.728 47.2721C107.104 50.6477 109 55.2261 109 60Z" stroke="white" stroke-width="2"/>
<path fill-rule="evenodd" clip-rule="evenodd" d="M91 43.4399C85.3681 43.4399 80.3927 46.2517 77.401 50.5477L82.3578 59.1359L91.4185 43.4444C91.2794 43.441 91.1399 43.4399 91 43.4399ZM92.386 43.4984L87.427 52.0867H105.549C102.95 47.3188 98.0765 43.9703 92.386 43.4984ZM76.87 51.3577C75.3276 53.8736 74.44 56.8326 74.44 59.9999C74.44 62.5221 75.0043 64.9119 76.0128 67.0514H85.9308L76.87 51.3577ZM96.067 52.9507L105.128 68.6422C106.67 66.1263 107.56 63.1672 107.56 59.9999C107.56 57.4789 106.995 55.0896 105.987 52.9507H96.067ZM99.6378 60.8662L90.5793 76.5554C90.7191 76.5589 90.8594 76.5599 91 76.5599C96.6311 76.5599 101.605 73.7493 104.597 69.4544L99.6378 60.8662ZM76.4515 67.9154C79.0506 72.6819 83.9223 76.0296 89.6118 76.5014L94.5685 67.9154H76.4515Z" fill="white"/>
<path d="M16.9813 79H2.85867V28.9947H8.49067C9.99822 28.9947 12.2738 28.9378 15.3173 28.824C18.3609 28.6818 20.864 28.6107 22.8267 28.6107C28.3449 28.6107 32.5262 30.0756 35.3707 33.0053C38.2151 35.9351 39.6373 40.3298 39.6373 46.1893C39.6373 49.7164 39.168 52.9307 38.2293 55.832C37.3191 58.7049 36.0818 61.0658 34.5173 62.9147C32.9529 64.7636 31.1751 66.1858 29.184 67.1813C27.1929 68.1769 25.088 68.6747 22.8693 68.6747C22.5849 68.6747 22.2862 68.6747 21.9733 68.6747C21.6889 68.6747 21.4187 68.6747 21.1627 68.6747C20.9351 68.6462 20.6507 68.632 20.3093 68.632C19.9964 68.6036 19.7404 68.5893 19.5413 68.5893C19.3707 68.5609 19.1147 68.5467 18.7733 68.5467C18.4604 68.5182 18.2471 68.504 18.1333 68.504C18.0196 68.504 17.8062 68.4898 17.4933 68.4613C17.1804 68.4329 17.0098 68.4187 16.9813 68.4187V79ZM25.6427 44.312C25.6427 42.2071 25.0738 40.5004 23.936 39.192C22.7982 37.8836 21.1627 37.2293 19.0293 37.2293H16.9813V59.416H18.56C20.8071 59.416 22.5422 58.6622 23.7653 57.1547C25.0169 55.6471 25.6427 53.4711 25.6427 50.6267V44.312ZM57.1093 79H43.328V51.3947L40.768 49.816V44.9947L49.9413 42.7333H53.3973L54.6347 52.888C55.8009 45.9191 59.5413 42.4347 65.856 42.4347C66.5671 42.4347 67.3067 42.5627 68.0747 42.8187L66.624 58.008C66.0267 57.4676 64.7182 57.1973 62.6987 57.1973C59.7973 57.1973 57.9342 57.9653 57.1093 59.5013V79ZM122.913 59.2027V48.4933H148.428V59.2027H122.913ZM178.584 79V51.3947L176.024 49.816V45.2507L185.198 42.7333H192.323V79H178.584ZM184.771 38.808L177.774 31.768V30.2747L184.771 23.2773H186.392L193.688 30.2747V31.768L186.392 38.808H184.771ZM170.051 79H156.184V50.2427H152.046V44.568L156.355 42.7333V39.0213C156.355 36.1484 156.753 33.6596 157.55 31.5547C158.346 29.4498 159.455 27.8142 160.878 26.648C162.328 25.4818 163.921 24.6427 165.656 24.1307C167.42 23.5902 169.383 23.32 171.544 23.32C173.479 23.32 175.299 23.576 177.006 24.088C178.712 24.6 179.779 25.0693 180.206 25.496L178.584 31.9813C177.219 31.2987 175.811 30.9573 174.36 30.9573C173.991 30.9573 173.649 30.9858 173.336 31.0427C171.146 31.384 170.051 33.2471 170.051 36.632V42.7333H175.555V50.2427H170.051V79ZM197.734 79V30.744L195.174 29.208V25.24L208.87 23.1067H211.643V79H197.734ZM236.485 56.9413C236.485 53.3289 236.3 50.7689 235.931 49.2613C235.561 47.7538 234.878 47 233.883 47C233.029 47 232.332 47.1564 231.792 47.4693C231.252 47.7538 230.853 48.2231 230.597 48.8773C230.341 49.5031 230.171 50.1573 230.085 50.84C230.028 51.4942 230 52.3333 230 53.3573V56.9413H236.485ZM233.072 79.896C229.886 79.896 227.113 79.4124 224.752 78.4453C222.42 77.4782 220.571 76.1271 219.205 74.392C217.868 72.6569 216.887 70.7084 216.261 68.5467C215.636 66.3564 215.323 63.9244 215.323 61.2507C215.323 54.8791 216.944 50.0578 220.187 46.7867C223.429 43.5156 227.966 41.88 233.797 41.88C239.401 41.88 243.412 43.2027 245.829 45.848C248.247 48.4649 249.456 52.6889 249.456 58.52V63.256H229.957V64.0667C229.957 65.7449 230.128 67.1244 230.469 68.2053C230.839 69.2862 231.365 70.0827 232.048 70.5947C232.731 71.1067 233.428 71.448 234.139 71.6187C234.85 71.7893 235.717 71.8747 236.741 71.8747C237.737 71.8747 238.804 71.7467 239.941 71.4907C241.108 71.2347 242.274 70.8364 243.44 70.296C244.635 69.7556 245.63 69.1156 246.427 68.376L248.944 72.6853C247.892 74.392 246.341 75.8284 244.293 76.9947C242.274 78.1324 240.325 78.9004 238.448 79.2987C236.571 79.6969 234.779 79.896 233.072 79.896Z" fill="white"/>
</svg>
